<svg width="28" height="32" viewBox="0 0 28 32" fill="none" xmlns="http://www.w3.org/2000/svg">
<path fill-rule="evenodd" clip-rule="evenodd" d="M4.01292 5.66666H5.16938L5.2272 5.68C6.83024 5.71585 8.23092 6.93779 8.69659 8.70666L8.92788 9.62666H20.9898C22.0549 9.63226 23.0663 10.1667 23.7653 11.0933C24.4623 12.0258 24.7707 13.2631 24.6095 14.48L23.9156 20C23.6845 22.1159 22.1339 23.7101 20.2843 23.7333H13.4843C11.8599 23.7264 10.4292 22.4988 9.95713 20.7067L7.03128 9.33333C6.80723 8.35757 6.04482 7.67511 5.16938 7.66666H4.01292C3.53389 7.66666 3.14557 7.21895 3.14557 6.66666C3.14557 6.11438 3.53389 5.66666 4.01292 5.66666ZM11.6224 20.0667C11.8679 21.016 12.6251 21.6667 13.4843 21.6667H20.2843C21.2415 21.6547 22.0521 20.8496 22.2041 19.76L22.8979 14.2267C22.9924 13.5826 22.8384 12.923 22.4761 12.4208C22.1138 11.9185 21.5794 11.6236 21.0129 11.6133H9.44829L11.6224 20.0667Z" fill="#FF80E3"/>
<path d="M13.2184 25.3333C12.5797 25.3333 12.0619 25.9303 12.0619 26.6667C12.0619 27.403 12.5797 28 13.2184 28C13.8571 28 14.3748 27.403 14.3748 26.6667C14.3748 25.9303 13.8571 25.3333 13.2184 25.3333Z" fill="#FF80E3"/>
<path d="M20.1571 25.3333C19.5184 25.3333 19.0007 25.9303 19.0007 26.6667C19.0007 27.403 19.5184 28 20.1571 28C20.7958 28 21.3136 27.403 21.3136 26.6667C21.3136 25.9303 20.7958 25.3333 20.1571 25.3333Z" fill="#FF80E3"/>
</svg>
